<?plantuml 1.2026.2beta3?><svg xmlns="http://www.w3.org/2000/svg" xmlns:xlink="http://www.w3.org/1999/xlink" contentStyleType="text/css" data-diagram-type="ACTIVITY" height="1437px" preserveAspectRatio="none" style="width:272px;height:1437px;background:#FFFFFF;" version="1.1" viewBox="0 0 272 1437" width="272px" zoomAndPan="magnify"><title>Event Loop</title><defs/><g><g class="title" data-source-line="1"><text fill="#000000" font-family="sans-serif" font-size="14" font-weight="bold" lengthAdjust="spacing" textLength="87.8965" x="90.5635" y="32.9951">Event Loop</text></g><ellipse cx="136.0117" cy="57.2969" fill="#222222" rx="10" ry="10" style="stroke:#222222;stroke-width:1;"/><rect fill="#F1F1F1" height="33.9688" rx="12.5" ry="12.5" style="stroke:#181818;stroke-width:0.5;" width="128.8906" x="71.5664" y="87.2969"/><text fill="#000000" font-family="sans-serif" font-size="12" lengthAdjust="spacing" textLength="108.8906" x="81.5664" y="108.4355">asyncio.run(main)</text><rect fill="#F1F1F1" height="33.9688" rx="12.5" ry="12.5" style="stroke:#181818;stroke-width:0.5;" width="125.7969" x="73.1133" y="141.2656"/><text fill="#000000" font-family="sans-serif" font-size="12" lengthAdjust="spacing" textLength="105.7969" x="83.1133" y="162.4043">create event loop</text><rect fill="none" height="204.1719" style="stroke:#000000;stroke-width:1.5;" width="250.0234" x="11" y="185.2344"/><path d="M66.9033,185.2344 L66.9033,194.5313 L56.9033,204.5313 L11,204.5313" fill="none" style="stroke:#000000;stroke-width:1.5;"/><text fill="#000000" font-family="sans-serif" font-size="14" lengthAdjust="spacing" textLength="45.9033" x="14" y="199.2295">main()</text><rect fill="#F1F1F1" height="33.9688" rx="12.5" ry="12.5" style="stroke:#181818;stroke-width:0.5;" width="145.3848" x="63.3193" y="221.5313"/><text fill="#000000" font-family="sans-serif" font-size="12" lengthAdjust="spacing" textLength="125.3848" x="73.3193" y="242.6699">create server_socket</text><rect fill="#F1F1F1" height="47.9375" rx="12.5" ry="12.5" style="stroke:#181818;stroke-width:0.5;" width="230.0234" x="21" y="275.5"/><text fill="#000000" font-family="sans-serif" font-size="12" lengthAdjust="spacing" textLength="132.2285" x="31" y="296.6387">create listener_task =</text><text fill="#000000" font-family="sans-serif" font-size="12" lengthAdjust="spacing" textLength="206.209" x="34.8145" y="310.6074">create_task(listen_for_connection)</text><rect fill="#F1F1F1" height="33.9688" rx="12.5" ry="12.5" style="stroke:#181818;stroke-width:0.5;" width="132.5645" x="69.7295" y="343.4375"/><text fill="#000000" font-family="sans-serif" font-size="12" lengthAdjust="spacing" textLength="112.5645" x="79.7295" y="364.5762">await listener_task</text><rect fill="none" height="384.9487" style="stroke:#000000;stroke-width:1.5;" width="240.7363" x="14.1436" y="399.4063"/><path d="M183.5029,399.4063 L183.5029,408.7031 L173.5029,418.7031 L14.1436,418.7031" fill="none" style="stroke:#000000;stroke-width:1.5;"/><text fill="#000000" font-family="sans-serif" font-size="14" lengthAdjust="spacing" textLength="159.3594" x="17.1436" y="413.4014">listen_for_connection()</text><rect fill="#F1F1F1" height="33.9688" rx="12.5" ry="12.5" style="stroke:#181818;stroke-width:0.5;" width="129.7695" x="71.127" y="491.4136"/><text fill="#000000" font-family="sans-serif" font-size="12" lengthAdjust="spacing" textLength="109.7695" x="81.127" y="512.5522">await sock_accept</text><rect fill="#F1F1F1" height="33.9688" rx="12.5" ry="12.5" style="stroke:#181818;stroke-width:0.5;" width="175.7363" x="48.1436" y="554.48"/><text fill="#000000" font-family="sans-serif" font-size="12" lengthAdjust="spacing" textLength="155.7363" x="58.1436" y="575.6187">create_task(validate_dna)</text><polygon fill="#F1F1F1" points="98.2207,435.7031,173.8027,435.7031,185.8027,447.7031,173.8027,459.7031,98.2207,459.7031,86.2207,447.7031,98.2207,435.7031" style="stroke:#181818;stroke-width:0.5;"/><text fill="#000000" font-family="sans-serif" font-size="11" lengthAdjust="spacing" textLength="63.8945" x="140.0117" y="469.9136">accept loop</text><text fill="#000000" font-family="sans-serif" font-size="11" lengthAdjust="spacing" textLength="75.582" x="98.2207" y="451.5112">not Cancelled</text><rect fill="#F1F1F1" height="33.9688" rx="12.5" ry="12.5" style="stroke:#181818;stroke-width:0.5;" width="127.4727" x="72.2754" y="630.4487"/><text fill="#000000" font-family="sans-serif" font-size="12" lengthAdjust="spacing" textLength="107.4727" x="82.2754" y="651.5874">on CancelledError</text><rect fill="#F1F1F1" height="33.9688" rx="12.5" ry="12.5" style="stroke:#181818;stroke-width:0.5;" width="192.6055" x="39.709" y="684.4175"/><text fill="#000000" font-family="sans-serif" font-size="12" lengthAdjust="spacing" textLength="172.6055" x="49.709" y="705.5562">cancel all validate_dna tasks</text><rect fill="#F1F1F1" height="33.9688" rx="12.5" ry="12.5" style="stroke:#181818;stroke-width:0.5;" width="136.8477" x="67.5879" y="738.3862"/><text fill="#000000" font-family="sans-serif" font-size="12" lengthAdjust="spacing" textLength="116.8477" x="77.5879" y="759.5249">await gather(tasks)</text><rect fill="none" height="590.1597" style="stroke:#000000;stroke-width:1.5;" width="229.3945" x="25.8145" y="794.355"/><path d="M213.4258,794.355 L213.4258,803.6519 L203.4258,813.6519 L25.8145,813.6519" fill="none" style="stroke:#000000;stroke-width:1.5;"/><text fill="#000000" font-family="sans-serif" font-size="14" lengthAdjust="spacing" textLength="177.6113" x="28.8145" y="808.3501">validate_dna(connection)</text><rect fill="#F1F1F1" height="33.9688" rx="12.5" ry="12.5" style="stroke:#181818;stroke-width:0.5;" width="115.5313" x="78.2461" y="886.3623"/><text fill="#000000" font-family="sans-serif" font-size="12" lengthAdjust="spacing" textLength="95.5313" x="88.2461" y="907.501">await sock_recv</text><rect fill="#F1F1F1" height="33.9688" rx="12.5" ry="12.5" style="stroke:#181818;stroke-width:0.5;" width="130.0273" x="70.998" y="940.3311"/><text fill="#000000" font-family="sans-serif" font-size="12" lengthAdjust="spacing" textLength="110.0273" x="80.998" y="961.4697">accumulate buffer</text><rect fill="#F1F1F1" height="33.9688" rx="12.5" ry="12.5" style="stroke:#181818;stroke-width:0.5;" width="98.4219" x="86.8008" y="1042.7021"/><text fill="#000000" font-family="sans-serif" font-size="12" lengthAdjust="spacing" textLength="78.4219" x="96.8008" y="1063.8408">validate DNA</text><rect fill="#F1F1F1" height="33.9688" rx="12.5" ry="12.5" style="stroke:#181818;stroke-width:0.5;" width="132.3945" x="69.8145" y="1096.6709"/><text fill="#000000" font-family="sans-serif" font-size="12" lengthAdjust="spacing" textLength="112.3945" x="79.8145" y="1117.8096">await sock_sendall</text><rect fill="#F1F1F1" height="33.9688" rx="12.5" ry="12.5" style="stroke:#181818;stroke-width:0.5;" width="89.4043" x="91.3096" y="1150.6396"/><text fill="#000000" font-family="sans-serif" font-size="12" lengthAdjust="spacing" textLength="69.4043" x="101.3096" y="1171.7783">clear buffer</text><polygon fill="#F1F1F1" points="85.5798,994.2998,186.4436,994.2998,198.4436,1006.2998,186.4436,1018.2998,85.5798,1018.2998,73.5798,1006.2998,85.5798,994.2998" style="stroke:#181818;stroke-width:0.5;"/><text fill="#000000" font-family="sans-serif" font-size="11" lengthAdjust="spacing" textLength="19.0083" x="140.0117" y="1028.5103">yes</text><text fill="#000000" font-family="sans-serif" font-size="11" lengthAdjust="spacing" textLength="100.8638" x="85.5798" y="1010.1079">newline detected?</text><polygon fill="#F1F1F1" points="136.0117,1204.6084,148.0117,1216.6084,136.0117,1228.6084,124.0117,1216.6084,136.0117,1204.6084" style="stroke:#181818;stroke-width:0.5;"/><polygon fill="#F1F1F1" points="98.1643,830.6519,173.8591,830.6519,185.8591,842.6519,173.8591,854.6519,98.1643,854.6519,86.1643,842.6519,98.1643,830.6519" style="stroke:#181818;stroke-width:0.5;"/><text fill="#000000" font-family="sans-serif" font-size="11" lengthAdjust="spacing" textLength="50.8428" x="140.0117" y="864.8623">recv loop</text><text fill="#000000" font-family="sans-serif" font-size="11" lengthAdjust="spacing" textLength="75.6948" x="98.1643" y="846.46">data received</text><rect fill="#F1F1F1" height="47.9375" rx="12.5" ry="12.5" style="stroke:#181818;stroke-width:0.5;" width="174.4883" x="48.7676" y="1270.6084"/><text fill="#000000" font-family="sans-serif" font-size="12" lengthAdjust="spacing" textLength="154.4883" x="58.7676" y="1291.7471">on ConnectionResetError/</text><text fill="#000000" font-family="sans-serif" font-size="12" lengthAdjust="spacing" textLength="88.7109" x="62.582" y="1305.7158">CancelledError</text><rect fill="#F1F1F1" height="33.9688" rx="12.5" ry="12.5" style="stroke:#181818;stroke-width:0.5;" width="120.8398" x="75.5918" y="1338.5459"/><text fill="#000000" font-family="sans-serif" font-size="12" lengthAdjust="spacing" textLength="100.8398" x="85.5918" y="1359.6846">close connection</text><ellipse cx="136.0117" cy="1415.5146" fill="none" rx="11" ry="11" style="stroke:#222222;stroke-width:1;"/><ellipse cx="136.0117" cy="1415.5146" fill="#222222" rx="6" ry="6" style="stroke:#222222;stroke-width:1;"/><line style="stroke:#181818;stroke-width:1;" x1="136.0117" x2="136.0117" y1="67.2969" y2="87.2969"/><polygon fill="#181818" points="132.0117,77.2969,136.0117,87.2969,140.0117,77.2969,136.0117,81.2969" style="stroke:#181818;stroke-width:1;"/><line style="stroke:#181818;stroke-width:1;" x1="136.0117" x2="136.0117" y1="121.2656" y2="141.2656"/><polygon fill="#181818" points="132.0117,131.2656,136.0117,141.2656,140.0117,131.2656,136.0117,135.2656" style="stroke:#181818;stroke-width:1;"/><line style="stroke:#181818;stroke-width:1;" x1="136.0117" x2="136.0117" y1="255.5" y2="275.5"/><polygon fill="#181818" points="132.0117,265.5,136.0117,275.5,140.0117,265.5,136.0117,269.5" style="stroke:#181818;stroke-width:1;"/><line style="stroke:#181818;stroke-width:1;" x1="136.0117" x2="136.0117" y1="323.4375" y2="343.4375"/><polygon fill="#181818" points="132.0117,333.4375,136.0117,343.4375,140.0117,333.4375,136.0117,337.4375" style="stroke:#181818;stroke-width:1;"/><line style="stroke:#181818;stroke-width:1;" x1="136.0117" x2="136.0117" y1="175.2344" y2="221.5313"/><polygon fill="#181818" points="132.0117,211.5313,136.0117,221.5313,140.0117,211.5313,136.0117,215.5313" style="stroke:#181818;stroke-width:1;"/><line style="stroke:#181818;stroke-width:1;" x1="136.0117" x2="136.0117" y1="525.3823" y2="554.48"/><polygon fill="#181818" points="132.0117,544.48,136.0117,554.48,140.0117,544.48,136.0117,548.48" style="stroke:#181818;stroke-width:1;"/><line style="stroke:#181818;stroke-width:1;" x1="136.0117" x2="136.0117" y1="459.7031" y2="491.4136"/><polygon fill="#181818" points="132.0117,481.4136,136.0117,491.4136,140.0117,481.4136,136.0117,485.4136" style="stroke:#181818;stroke-width:1;"/><line style="stroke:#181818;stroke-width:1;" x1="136.0117" x2="136.0117" y1="588.4487" y2="598.4487"/><line style="stroke:#181818;stroke-width:1;" x1="136.0117" x2="235.8799" y1="598.4487" y2="598.4487"/><polygon fill="#181818" points="231.8799,534.48,235.8799,524.48,239.8799,534.48,235.8799,530.48" style="stroke:#181818;stroke-width:1;"/><line style="stroke:#181818;stroke-width:1;" x1="235.8799" x2="235.8799" y1="447.7031" y2="598.4487"/><line style="stroke:#181818;stroke-width:1;" x1="235.8799" x2="185.8027" y1="447.7031" y2="447.7031"/><polygon fill="#181818" points="195.8027,443.7031,185.8027,447.7031,195.8027,451.7031,191.8027,447.7031" style="stroke:#181818;stroke-width:1;"/><line style="stroke:#181818;stroke-width:1;" x1="86.2207" x2="36.1436" y1="447.7031" y2="447.7031"/><polygon fill="#181818" points="32.1436,520.48,36.1436,530.48,40.1436,520.48,36.1436,524.48" style="stroke:#181818;stroke-width:1;"/><line style="stroke:#181818;stroke-width:1;" x1="36.1436" x2="36.1436" y1="447.7031" y2="610.4487"/><line style="stroke:#181818;stroke-width:1;" x1="36.1436" x2="136.0117" y1="610.4487" y2="610.4487"/><line style="stroke:#181818;stroke-width:1;" x1="136.0117" x2="136.0117" y1="610.4487" y2="630.4487"/><polygon fill="#181818" points="132.0117,620.4487,136.0117,630.4487,140.0117,620.4487,136.0117,624.4487" style="stroke:#181818;stroke-width:1;"/><line style="stroke:#181818;stroke-width:1;" x1="136.0117" x2="136.0117" y1="664.4175" y2="684.4175"/><polygon fill="#181818" points="132.0117,674.4175,136.0117,684.4175,140.0117,674.4175,136.0117,678.4175" style="stroke:#181818;stroke-width:1;"/><line style="stroke:#181818;stroke-width:1;" x1="136.0117" x2="136.0117" y1="718.3862" y2="738.3862"/><polygon fill="#181818" points="132.0117,728.3862,136.0117,738.3862,140.0117,728.3862,136.0117,732.3862" style="stroke:#181818;stroke-width:1;"/><line style="stroke:#181818;stroke-width:1;" x1="136.0117" x2="136.0117" y1="377.4063" y2="435.7031"/><polygon fill="#181818" points="132.0117,425.7031,136.0117,435.7031,140.0117,425.7031,136.0117,429.7031" style="stroke:#181818;stroke-width:1;"/><line style="stroke:#181818;stroke-width:1;" x1="136.0117" x2="136.0117" y1="920.3311" y2="940.3311"/><polygon fill="#181818" points="132.0117,930.3311,136.0117,940.3311,140.0117,930.3311,136.0117,934.3311" style="stroke:#181818;stroke-width:1;"/><line style="stroke:#181818;stroke-width:1;" x1="136.0117" x2="136.0117" y1="1076.6709" y2="1096.6709"/><polygon fill="#181818" points="132.0117,1086.6709,136.0117,1096.6709,140.0117,1086.6709,136.0117,1090.6709" style="stroke:#181818;stroke-width:1;"/><line style="stroke:#181818;stroke-width:1;" x1="136.0117" x2="136.0117" y1="1130.6396" y2="1150.6396"/><polygon fill="#181818" points="132.0117,1140.6396,136.0117,1150.6396,140.0117,1140.6396,136.0117,1144.6396" style="stroke:#181818;stroke-width:1;"/><line style="stroke:#181818;stroke-width:1;" x1="136.0117" x2="136.0117" y1="1018.2998" y2="1042.7021"/><polygon fill="#181818" points="132.0117,1032.7021,136.0117,1042.7021,140.0117,1032.7021,136.0117,1036.7021" style="stroke:#181818;stroke-width:1;"/><line style="stroke:#181818;stroke-width:1;" x1="198.4436" x2="212.209" y1="1006.2998" y2="1006.2998"/><polygon fill="#181818" points="208.209,1103.6553,212.209,1113.6553,216.209,1103.6553,212.209,1107.6553" style="stroke:#181818;stroke-width:1;"/><line style="stroke:#181818;stroke-width:1;" x1="212.209" x2="212.209" y1="1006.2998" y2="1216.6084"/><line style="stroke:#181818;stroke-width:1;" x1="212.209" x2="148.0117" y1="1216.6084" y2="1216.6084"/><polygon fill="#181818" points="158.0117,1212.6084,148.0117,1216.6084,158.0117,1220.6084,154.0117,1216.6084" style="stroke:#181818;stroke-width:1;"/><line style="stroke:#181818;stroke-width:1;" x1="136.0117" x2="136.0117" y1="1184.6084" y2="1204.6084"/><polygon fill="#181818" points="132.0117,1194.6084,136.0117,1204.6084,140.0117,1194.6084,136.0117,1198.6084" style="stroke:#181818;stroke-width:1;"/><line style="stroke:#181818;stroke-width:1;" x1="136.0117" x2="136.0117" y1="974.2998" y2="994.2998"/><polygon fill="#181818" points="132.0117,984.2998,136.0117,994.2998,140.0117,984.2998,136.0117,988.2998" style="stroke:#181818;stroke-width:1;"/><line style="stroke:#181818;stroke-width:1;" x1="136.0117" x2="136.0117" y1="854.6519" y2="886.3623"/><polygon fill="#181818" points="132.0117,876.3623,136.0117,886.3623,140.0117,876.3623,136.0117,880.3623" style="stroke:#181818;stroke-width:1;"/><line style="stroke:#181818;stroke-width:1;" x1="136.0117" x2="136.0117" y1="1228.6084" y2="1238.6084"/><line style="stroke:#181818;stroke-width:1;" x1="136.0117" x2="236.209" y1="1238.6084" y2="1238.6084"/><polygon fill="#181818" points="232.209,1051.2842,236.209,1041.2842,240.209,1051.2842,236.209,1047.2842" style="stroke:#181818;stroke-width:1;"/><line style="stroke:#181818;stroke-width:1;" x1="236.209" x2="236.209" y1="842.6519" y2="1238.6084"/><line style="stroke:#181818;stroke-width:1;" x1="236.209" x2="185.8591" y1="842.6519" y2="842.6519"/><polygon fill="#181818" points="195.8591,838.6519,185.8591,842.6519,195.8591,846.6519,191.8591,842.6519" style="stroke:#181818;stroke-width:1;"/><line style="stroke:#181818;stroke-width:1;" x1="86.1643" x2="47.8145" y1="842.6519" y2="842.6519"/><polygon fill="#181818" points="43.8145,1037.2842,47.8145,1047.2842,51.8145,1037.2842,47.8145,1041.2842" style="stroke:#181818;stroke-width:1;"/><line style="stroke:#181818;stroke-width:1;" x1="47.8145" x2="47.8145" y1="842.6519" y2="1250.6084"/><line style="stroke:#181818;stroke-width:1;" x1="47.8145" x2="136.0117" y1="1250.6084" y2="1250.6084"/><line style="stroke:#181818;stroke-width:1;" x1="136.0117" x2="136.0117" y1="1250.6084" y2="1270.6084"/><polygon fill="#181818" points="132.0117,1260.6084,136.0117,1270.6084,140.0117,1260.6084,136.0117,1264.6084" style="stroke:#181818;stroke-width:1;"/><line style="stroke:#181818;stroke-width:1;" x1="136.0117" x2="136.0117" y1="1318.5459" y2="1338.5459"/><polygon fill="#181818" points="132.0117,1328.5459,136.0117,1338.5459,140.0117,1328.5459,136.0117,1332.5459" style="stroke:#181818;stroke-width:1;"/><line style="stroke:#181818;stroke-width:1;" x1="136.0117" x2="136.0117" y1="772.355" y2="830.6519"/><polygon fill="#181818" points="132.0117,820.6519,136.0117,830.6519,140.0117,820.6519,136.0117,824.6519" style="stroke:#181818;stroke-width:1;"/><line style="stroke:#181818;stroke-width:1;" x1="136.0117" x2="136.0117" y1="1372.5146" y2="1404.5146"/><polygon fill="#181818" points="132.0117,1394.5146,136.0117,1404.5146,140.0117,1394.5146,136.0117,1398.5146" style="stroke:#181818;stroke-width:1;"/><?plantuml-src VL7BJiCm4BpxArOzEHUuDq880JV4WH-8ZBEXLbqxiZUfAiI_ixQR9gaAljaptdai6R88hoCwWZVlUo4YgK12R5KyEMtyNHYSF2ZZgbfiTK1529Zfbkcr43tJ3HdlO9Deijh0jm0-4pjY634qqUizKhs2h8c4Za5ISGyF6OE2vITP24tdGwEzSwYJ43ifKzHH6LeFgSNFojBD0RF7uyvmVEaymRDo6gt5jW8JGIgjiIyXg-9hLanHcaAePspfUrJMjEdMEbKL3hesgvszixcBuci8FapDv4TGri9o2AIniLxc_bAqmo0pK5tdNlwLY-gkWZD5GK2DPfo2ysty9tQ25w6vXU4msBJCpw7hC9ntauxfk5ayMkCGMYHsWErZ1UpQWJnXd0NogCaolBm_rMjeeH-vHoxdYg0jgd1nC3qprNH_bN_fv0CZKbx1VVbvUo_MHuIvoLnu9D__0W00?></g></svg>